<svg width="22" height="22" viewBox="0 0 22 22" fill="none" xmlns="http://www.w3.org/2000/svg">
<path fill-rule="evenodd" clip-rule="evenodd" d="M10.0404 2.29629C10.0404 2.10635 10.1941 1.9526 10.3841 1.9526C10.574 1.9526 10.7278 2.10635 10.7278 2.29629V2.79153C11.2012 2.88906 11.6283 3.19511 11.7862 3.64855C11.8483 3.82724 11.7539 4.02255 11.5753 4.08489C11.3966 4.14697 11.2012 4.05262 11.1389 3.87393C10.9275 3.26649 9.62213 3.29655 9.62213 4.0074C9.62213 4.34693 9.93331 4.57084 10.3838 4.57084C11.2558 4.57084 11.8329 5.12915 11.8329 5.82166C11.8329 6.41615 11.3973 6.92215 10.7275 7.0429V7.53326C10.7275 7.72295 10.5738 7.8767 10.3838 7.8767C10.1939 7.8767 10.0401 7.72295 10.0401 7.53326V7.03777C9.57177 6.94195 9.14864 6.64128 8.98657 6.19542C8.92203 6.01746 9.01419 5.82068 9.1919 5.75639C9.36986 5.69162 9.56639 5.78353 9.63093 5.96173C9.67273 6.07637 9.76537 6.17879 9.89077 6.25457C10.0282 6.33793 10.2198 6.38217 10.4117 6.37997C10.6955 6.37655 10.9808 6.27193 11.0949 6.04093C11.1621 5.90477 11.1621 5.73855 11.0949 5.60239C10.9996 5.40928 10.7647 5.25846 10.3836 5.25846C9.51139 5.25846 8.93426 4.70015 8.93426 4.0074C8.93426 3.41291 9.36986 2.90691 10.0396 2.78615V2.29604L10.0404 2.29629ZM8.22121 9.4145C6.9144 8.66332 6.03684 7.32401 5.89359 5.79673C5.77333 4.51193 6.18522 3.29949 6.94887 2.37793C7.71227 1.45662 8.82597 0.82669 10.1093 0.706424C12.1411 0.516002 14.0527 1.66856 14.8413 3.51557C14.9156 3.68986 15.1168 3.77126 15.2911 3.69695C15.4654 3.62289 15.5465 3.42146 15.4722 3.24718C15.0202 2.1924 14.2434 1.32193 13.2781 0.748957C11.0086 -0.598907 8.09605 -0.0833751 6.4194 1.94038C5.54501 2.99589 5.07299 4.38531 5.2111 5.85882C5.37561 7.61368 6.37686 9.14439 7.87947 10.0083C8.04325 10.1024 8.2525 10.0459 8.34685 9.88188C8.44096 9.7181 8.3845 9.50885 8.22072 9.4145H8.22121ZM18.6657 16.3983L20.3511 15.5354C20.5802 15.418 20.8407 15.5051 21.0314 15.6796C21.2582 15.8871 21.478 16.3286 21.1275 16.5129L12.4086 21.0999C11.9571 21.3375 11.488 21.3759 11.003 21.2163L6.68095 19.7914C6.426 19.7076 6.16908 19.666 5.90117 19.666H0.343691C0.154001 19.666 0 19.82 0 20.0099C0 20.1999 0.154001 20.3536 0.343691 20.3536H5.90117C6.11262 20.3536 6.26564 20.3781 6.46609 20.4441L10.7881 21.8689C11.4511 22.0875 12.1096 22.0322 12.7278 21.7071L21.447 17.1201C22.5988 16.5139 21.7667 14.849 20.6349 14.794V3.54711L21.4088 3.54637C21.6843 3.54637 21.85 3.23373 21.6894 3.00591L19.6703 0.150558C19.5359 -0.0440194 19.2465 -0.0540416 19.1057 0.145669L17.0953 2.98855C16.9088 3.23593 17.0922 3.54735 17.3635 3.54735H18.1374V15.8998L17.5808 16.1849V4.87395C17.5808 4.68402 17.4268 4.53002 17.2371 4.53002H15.3837C15.194 4.53002 15.04 4.68377 15.04 4.87395V15.2821H14.5052V7.37779C14.5052 7.18786 14.3514 7.03386 14.1615 7.03386H12.3154C12.1255 7.03386 11.9717 7.18761 11.9717 7.37779V14.9724L11.4369 14.7534V10.0246C11.4369 9.8347 11.2831 9.68094 11.0932 9.68094H9.29139C9.1017 9.68094 8.9477 9.8347 8.9477 10.0246V13.8025C8.46101 13.7223 7.97627 13.7949 7.51794 14.0071L6.10137 14.663H0.343691C0.154001 14.663 0 14.8167 0 15.0066C0 15.1966 0.154001 15.3501 0.343691 15.3501L6.17544 15.3496C6.2236 15.3496 6.27248 15.3393 6.31893 15.3178L7.80541 14.63C8.28207 14.409 8.76828 14.4002 9.24837 14.597L12.2123 15.8116C12.3472 15.8602 12.5433 15.9698 12.6628 15.9698H15.0965C16.0303 15.9698 16.0381 17.6581 15.0965 17.6581H10.5554C10.3657 17.6581 10.2117 17.8121 10.2117 18.0018C10.2117 18.1915 10.3657 18.3458 10.5554 18.3458H15.0965C15.6832 18.3458 16.0836 18.0353 16.2999 17.6095L18.6657 16.3983ZM19.9475 14.9729L18.825 15.5476V3.20342C18.825 3.01373 18.6713 2.85949 18.4813 2.85949H18.0269L19.3863 0.937423L20.7456 2.85949H20.2912C20.1013 2.85949 19.9475 3.01349 19.9475 3.20342V14.9729ZM10.7495 14.4716L9.63533 14.0149V10.3681H10.7495V14.4716ZM16.8934 16.5366L16.4823 16.7471C16.4627 16.2149 16.2114 15.6786 15.7277 15.4281V5.21788H16.8937V16.5369L16.8934 16.5366ZM13.8178 15.2821H12.7276L12.6594 15.2543V7.72148H13.8178V15.2821Z" fill="white"/>
</svg>
